<?xml version="1.0" standalone="no"?>
<!DOCTYPE svg PUBLIC "-//W3C//DTD SVG 20010904//EN"
 "http://www.w3.org/TR/2001/REC-SVG-20010904/DTD/svg10.dtd">
<svg version="1.0" xmlns="http://www.w3.org/2000/svg"
 width="160.000000pt" height="160.000000pt" viewBox="0 0 160.000000 160.000000"
 preserveAspectRatio="xMidYMid meet">
<metadata>
Created by potrace 1.11, written by Peter Selinger 2001-2013
</metadata>
<g transform="translate(0.000000,160.000000) scale(0.100000,-0.100000)"
fill="#000000" stroke="none">
<path d="M635 1566 c-44 -20 -70 -46 -95 -93 -24 -46 -28 -62 -29 -110 l-1
-32 -37 16 c-21 8 -61 16 -90 18 -173 8 -243 -188 -112 -316 57 -55 198 -109
324 -124 114 -13 155 -35 155 -81 0 -20 -4 -23 -34 -19 -19 3 -74 25 -123 50
-102 52 -137 64 -214 72 -132 13 -266 -58 -283 -149 -3 -12 -5 -25 -7 -28 -17
-43 25 -134 78 -169 41 -26 108 -36 147 -21 l27 10 -26 -44 c-93 -159 46 -316
209 -236 112 55 194 190 210 346 3 28 8 58 12 67 9 23 26 10 19 -14 -29 -92
-25 -345 9 -474 1 -5 6 -26 10 -45 12 -48 52 -134 70 -149 12 -10 23 -10 51
-1 58 19 63 50 20 120 -26 43 -75 153 -80 180 -2 11 -6 24 -10 29 -20 33 -32
300 -15 341 26 64 47 26 54 -101 15 -249 49 -342 143 -389 122 -61 238 10 248
152 l3 52 65 1 c51 0 71 5 100 25 44 30 66 67 71 117 9 108 -99 203 -271 238
-29 6 -205 7 -280 2 -54 -4 -74 7 -36 20 15 5 90 8 165 5 225 -7 328 22 386
110 22 34 27 52 26 103 -1 74 -18 102 -87 140 -41 23 -68 30 -125 34 -10 1
-10 6 -1 22 6 12 11 43 11 70 -1 67 -34 123 -87 149 -105 51 -208 -4 -279
-149 -19 -39 -35 -74 -35 -76 0 -3 -5 -31 -12 -63 -6 -31 -13 -88 -14 -127 -2
-38 -4 -70 -5 -70 -1 0 -3 -14 -5 -31 -2 -18 -10 -45 -18 -60 -13 -25 -16 -26
-22 -12 -10 25 -1 99 25 203 54 224 58 310 17 392 -45 91 -145 135 -222 99z"/>
</g>
</svg>
